<svg width="590" height="219" viewBox="0 0 590 219" fill="none" xmlns="http://www.w3.org/2000/svg">
<path d="M198.983 175.632C198.79 174 198.006 172.733 196.631 171.831C195.257 170.929 193.571 170.478 191.573 170.478C190.113 170.478 188.835 170.714 187.74 171.186C186.655 171.659 185.807 172.308 185.195 173.135C184.593 173.962 184.293 174.902 184.293 175.954C184.293 176.835 184.502 177.592 184.921 178.225C185.35 178.848 185.898 179.369 186.564 179.788C187.23 180.196 187.928 180.534 188.658 180.803C189.388 181.06 190.059 181.27 190.671 181.431L194.022 182.333C194.881 182.558 195.837 182.87 196.889 183.267C197.952 183.664 198.967 184.207 199.933 184.894C200.91 185.571 201.716 186.44 202.349 187.503C202.983 188.567 203.3 189.871 203.3 191.418C203.3 193.2 202.833 194.811 201.898 196.25C200.975 197.689 199.622 198.833 197.839 199.681C196.067 200.529 193.914 200.954 191.38 200.954C189.018 200.954 186.972 200.572 185.243 199.81C183.525 199.047 182.172 197.984 181.184 196.621C180.207 195.257 179.654 193.673 179.525 191.869H183.648C183.756 193.114 184.174 194.145 184.905 194.961C185.646 195.767 186.58 196.368 187.707 196.766C188.846 197.152 190.07 197.345 191.38 197.345C192.905 197.345 194.274 197.098 195.488 196.604C196.701 196.1 197.662 195.402 198.371 194.51C199.08 193.608 199.434 192.556 199.434 191.353C199.434 190.258 199.128 189.367 198.516 188.679C197.904 187.992 197.098 187.434 196.1 187.004C195.101 186.575 194.022 186.199 192.862 185.877L188.803 184.717C186.226 183.976 184.185 182.918 182.682 181.544C181.178 180.169 180.427 178.37 180.427 176.147C180.427 174.3 180.926 172.69 181.925 171.315C182.934 169.93 184.287 168.856 185.984 168.094C187.691 167.32 189.597 166.934 191.702 166.934C193.828 166.934 195.718 167.315 197.372 168.077C199.026 168.829 200.336 169.86 201.302 171.17C202.28 172.48 202.795 173.968 202.849 175.632H198.983ZM211.366 200.374V167.385H222.513C225.101 167.385 227.216 167.852 228.859 168.786C230.513 169.71 231.737 170.961 232.532 172.539C233.326 174.118 233.724 175.879 233.724 177.823C233.724 179.766 233.326 181.533 232.532 183.122C231.748 184.711 230.534 185.979 228.891 186.924C227.248 187.858 225.143 188.325 222.577 188.325H214.587V184.781H222.448C224.22 184.781 225.643 184.475 226.717 183.863C227.791 183.251 228.569 182.424 229.052 181.383C229.546 180.33 229.793 179.144 229.793 177.823C229.793 176.502 229.546 175.321 229.052 174.279C228.569 173.237 227.785 172.421 226.701 171.831C225.616 171.229 224.177 170.929 222.384 170.929H215.361V200.374H211.366ZM241.657 200.374V167.385H261.566V170.929H245.652V182.075H260.535V185.619H245.652V196.83H261.824V200.374H241.657ZM270.264 200.374V167.385H274.259V196.83H289.594V200.374H270.264ZM297.277 200.374V167.385H317.058V170.929H301.272V182.075H315.576V185.619H301.272V200.374H297.277ZM353.232 183.879C353.232 187.359 352.604 190.365 351.347 192.9C350.091 195.434 348.367 197.388 346.177 198.763C343.986 200.137 341.484 200.825 338.671 200.825C335.857 200.825 333.355 200.137 331.164 198.763C328.974 197.388 327.25 195.434 325.994 192.9C324.737 190.365 324.109 187.359 324.109 183.879C324.109 180.4 324.737 177.393 325.994 174.859C327.25 172.325 328.974 170.37 331.164 168.996C333.355 167.621 335.857 166.934 338.671 166.934C341.484 166.934 343.986 167.621 346.177 168.996C348.367 170.37 350.091 172.325 351.347 174.859C352.604 177.393 353.232 180.4 353.232 183.879ZM349.366 183.879C349.366 181.023 348.888 178.612 347.933 176.647C346.988 174.682 345.704 173.194 344.083 172.185C342.472 171.176 340.668 170.671 338.671 170.671C336.673 170.671 334.864 171.176 333.242 172.185C331.631 173.194 330.348 174.682 329.392 176.647C328.447 178.612 327.975 181.023 327.975 183.879C327.975 186.736 328.447 189.146 329.392 191.112C330.348 193.077 331.631 194.564 333.242 195.574C334.864 196.583 336.673 197.088 338.671 197.088C340.668 197.088 342.472 196.583 344.083 195.574C345.704 194.564 346.988 193.077 347.933 191.112C348.888 189.146 349.366 186.736 349.366 183.879ZM361.447 200.374V167.385H365.442V196.83H380.777V200.374H361.447ZM388.46 200.374V167.385H392.455V183.75H392.841L407.661 167.385H412.88L399.027 182.268L412.88 200.374H408.047L396.578 185.039L392.455 189.678V200.374H388.46Z" fill="#8C4339"/>
<path d="M69.2776 116C68.068 116 66.4955 114.468 64.5602 111.404C62.6248 108.259 59.9234 103.299 56.4559 96.5256C53.4722 90.7195 50.9724 86.0425 48.9564 82.4943C46.9405 78.9462 45.0051 76.0028 43.1504 73.6643L32.385 86.0021V107.533L42.7875 108.863V116H5.16924V108.742L14.725 107.533V35.1993L5.2902 33.6268V26.1274H41.6989V33.6268L32.385 35.1993V74.632L64.1973 35.1993L54.2786 33.6268V26.1274H86.9376V33.6268L76.898 35.1993L53.4319 61.5684C56.2543 64.1489 59.238 67.8179 62.3829 72.5757C65.5278 77.2528 69.3582 83.3814 73.874 90.9615C77.1802 96.5256 79.6801 100.598 81.3735 103.178C83.0669 105.678 84.3571 107.13 85.2442 107.533L90.9293 108.863V116H69.2776ZM96.1884 97.1304C96.1884 89.7922 99.8575 84.2684 107.196 80.559C114.615 76.8496 124.17 74.9545 135.863 74.8739V72.0918C135.863 68.7856 135.5 66.2052 134.774 64.3505C134.129 62.4957 132.879 61.1249 131.025 60.2378C129.251 59.2702 126.63 58.7863 123.162 58.7863C119.211 58.7863 115.663 59.3105 112.518 60.3588C109.373 61.3265 106.107 62.6167 102.72 64.2295L98.9705 56.4881C100.18 55.4398 102.196 54.1899 105.018 52.7384C107.921 51.2869 111.349 50.037 115.3 48.9886C119.251 47.8597 123.324 47.2952 127.517 47.2952C133.726 47.2952 138.564 48.1016 142.032 49.7144C145.58 51.3272 148.12 53.9076 149.652 57.4558C151.185 61.0039 151.951 65.7616 151.951 71.729V108.742H158.482V115.516C156.87 115.919 154.571 116.323 151.588 116.726C148.604 117.129 145.983 117.331 143.725 117.331C140.984 117.331 139.129 116.927 138.161 116.121C137.274 115.315 136.831 113.661 136.831 111.162V107.896C134.653 110.315 131.831 112.492 128.364 114.428C124.896 116.363 120.985 117.331 116.631 117.331C112.921 117.331 109.494 116.564 106.349 115.032C103.285 113.42 100.825 111.121 98.9705 108.138C97.1158 105.073 96.1884 101.404 96.1884 97.1304ZM124.372 107.291C126.065 107.291 128.001 106.807 130.178 105.839C132.355 104.791 134.25 103.541 135.863 102.09V82.2524C128.605 82.2524 123.162 83.5023 119.534 86.0021C115.985 88.4213 114.211 91.5663 114.211 95.4369C114.211 99.3076 115.098 102.251 116.872 104.267C118.727 106.283 121.227 107.291 124.372 107.291ZM167.529 108.863L175.512 107.896V60.2378L167.771 58.0606V49.7144L186.52 47.1743H186.883L189.907 49.5934V52.2545L189.544 62.0522H189.907C190.471 60.4394 191.802 58.4638 193.898 56.1252C195.995 53.706 198.616 51.6094 201.761 49.8354C204.986 47.9806 208.454 47.0533 212.163 47.0533C213.937 47.0533 215.469 47.2952 216.759 47.7791V65.9229C214.34 64.2295 211.397 63.3828 207.929 63.3828C202.043 63.3828 196.922 64.9552 192.568 68.1002V107.775L206.599 108.863V116H167.529V108.863ZM232.979 27.5789L224.028 26.0064V19.4746L246.405 16.8135H246.647L249.913 19.1117V107.775L258.743 108.742V116H224.512V108.742L232.979 107.654V27.5789ZM281.995 106.081C282.64 107.049 284.091 107.976 286.349 108.863C288.688 109.67 291.026 110.073 293.365 110.073C297.155 110.073 299.977 109.307 301.832 107.775C303.767 106.162 304.735 104.065 304.735 101.485C304.735 98.8238 303.566 96.6869 301.227 95.0741C298.889 93.3806 294.937 91.3243 289.373 88.9052L285.986 87.4536C280.422 85.1151 276.269 82.2927 273.528 78.9865C270.786 75.6803 269.415 71.4064 269.415 66.1648C269.415 62.5361 270.504 59.3105 272.681 56.4881C274.858 53.5851 277.923 51.3272 281.874 49.7144C285.825 48.1016 290.381 47.2952 295.542 47.2952C299.332 47.2952 302.558 47.5371 305.219 48.021C307.961 48.5048 310.823 49.1499 313.807 49.9563C315.42 50.5208 316.629 50.8433 317.436 50.924V66.7696H307.88L305.098 57.5767C304.614 56.7703 303.526 56.0446 301.832 55.3995C300.139 54.7544 298.203 54.4318 296.026 54.4318C292.72 54.4318 290.059 55.1576 288.043 56.6091C286.107 57.9799 285.14 59.9153 285.14 62.4151C285.14 64.673 285.825 66.568 287.196 68.1002C288.567 69.5517 290.059 70.6806 291.672 71.487C293.284 72.2934 296.268 73.624 300.623 75.4787C304.977 77.3334 308.566 79.1075 311.388 80.8009C314.291 82.4943 316.67 84.7119 318.524 87.4536C320.46 90.1147 321.428 93.3806 321.428 97.2513C321.428 103.219 319.089 108.057 314.412 111.766C309.735 115.476 303.001 117.331 294.212 117.331C290.099 117.331 286.39 116.968 283.083 116.242C279.858 115.516 276.108 114.548 271.834 113.339L269.173 112.492V96.5256H279.213L281.995 106.081ZM353.112 117.089C348.031 117.089 344.282 115.919 341.862 113.581C339.443 111.242 338.234 107.533 338.234 102.453V58.0606H330.371V51.7707C331.016 51.5288 332.186 51.1256 333.879 50.5611C335.572 49.916 336.863 49.3918 337.75 48.9886C339.121 47.9403 340.29 46.1259 341.258 43.5455C341.983 41.8521 343.314 37.6588 345.249 30.9657H354.926L355.41 48.7467H373.917V58.0606H355.531V92.0501C355.531 96.5659 355.652 99.7512 355.894 101.606C356.136 103.461 356.66 104.67 357.466 105.235C358.272 105.718 359.684 105.96 361.7 105.96C363.716 105.96 365.812 105.759 367.99 105.356C370.167 104.872 371.981 104.307 373.433 103.662L375.731 110.436C373.473 112.129 370.167 113.661 365.812 115.032C361.458 116.403 357.224 117.089 353.112 117.089ZM382.334 97.1304C382.334 89.7922 386.003 84.2684 393.341 80.559C400.76 76.8496 410.316 74.9545 422.008 74.8739V72.0918C422.008 68.7856 421.646 66.2052 420.92 64.3505C420.275 62.4957 419.025 61.1249 417.17 60.2378C415.396 59.2702 412.775 58.7863 409.308 58.7863C405.356 58.7863 401.808 59.3105 398.663 60.3588C395.518 61.3265 392.253 62.6167 388.866 64.2295L385.116 56.4881C386.326 55.4398 388.342 54.1899 391.164 52.7384C394.067 51.2869 397.494 50.037 401.445 48.9886C405.397 47.8597 409.469 47.2952 413.662 47.2952C419.872 47.2952 424.71 48.1016 428.177 49.7144C431.726 51.3272 434.266 53.9076 435.798 57.4558C437.33 61.0039 438.096 65.7616 438.096 71.729V108.742H444.628V115.516C443.015 115.919 440.717 116.323 437.733 116.726C434.75 117.129 432.129 117.331 429.871 117.331C427.129 117.331 425.274 116.927 424.307 116.121C423.42 115.315 422.976 113.661 422.976 111.162V107.896C420.799 110.315 417.977 112.492 414.509 114.428C411.042 116.363 407.131 117.331 402.776 117.331C399.067 117.331 395.639 116.564 392.494 115.032C389.43 113.42 386.971 111.121 385.116 108.138C383.261 105.073 382.334 101.404 382.334 97.1304ZM410.517 107.291C412.211 107.291 414.146 106.807 416.323 105.839C418.501 104.791 420.396 103.541 422.008 102.09V82.2524C414.751 82.2524 409.308 83.5023 405.679 86.0021C402.131 88.4213 400.357 91.5663 400.357 95.4369C400.357 99.3076 401.244 102.251 403.018 104.267C404.873 106.283 407.372 107.291 410.517 107.291ZM478.955 117.331C473.955 117.331 469.48 116.161 465.529 113.823C461.577 111.404 458.432 107.694 456.094 102.694C453.755 97.6949 452.586 91.4453 452.586 83.9458C452.586 77.1721 453.957 71.0032 456.699 65.4391C459.521 59.7943 463.634 55.3188 469.036 52.0126C474.439 48.7064 480.931 47.0533 488.511 47.0533C491.575 47.0533 494.478 47.3759 497.22 48.021V27.5789L485.366 25.8854V19.2327L510.283 16.8135H510.646L514.033 19.3537V108.621H520.565V115.516C514.759 116.726 509.961 117.331 506.171 117.331C503.59 117.331 501.736 116.887 500.607 116C499.558 115.194 499.034 113.54 499.034 111.041V107.654C496.938 110.476 494.075 112.815 490.446 114.669C486.817 116.444 482.987 117.331 478.955 117.331ZM485.245 107.291C487.906 107.291 490.245 106.767 492.261 105.718C494.357 104.59 496.01 103.259 497.22 101.727V57.6977C496.655 56.8913 495.446 56.2059 493.591 55.6414C491.817 55.0769 489.882 54.7947 487.785 54.7947C482.624 54.7947 478.471 57.0526 475.326 61.5684C472.262 66.0036 470.73 73.1402 470.73 82.9782C470.73 91.2034 472.06 97.332 474.721 101.364C477.383 105.315 480.89 107.291 485.245 107.291ZM544.317 106.081C544.962 107.049 546.413 107.976 548.671 108.863C551.01 109.67 553.348 110.073 555.687 110.073C559.477 110.073 562.299 109.307 564.154 107.775C566.089 106.162 567.057 104.065 567.057 101.485C567.057 98.8238 565.888 96.6869 563.549 95.0741C561.211 93.3806 557.259 91.3243 551.695 88.9052L548.308 87.4536C542.744 85.1151 538.591 82.2927 535.85 78.9865C533.108 75.6803 531.737 71.4064 531.737 66.1648C531.737 62.5361 532.826 59.3105 535.003 56.4881C537.18 53.5851 540.244 51.3272 544.196 49.7144C548.147 48.1016 552.703 47.2952 557.864 47.2952C561.654 47.2952 564.88 47.5371 567.541 48.021C570.283 48.5048 573.145 49.1499 576.129 49.9563C577.742 50.5208 578.951 50.8433 579.758 50.924V66.7696H570.202L567.42 57.5767C566.936 56.7703 565.847 56.0446 564.154 55.3995C562.461 54.7544 560.525 54.4318 558.348 54.4318C555.042 54.4318 552.381 55.1576 550.365 56.6091C548.429 57.9799 547.462 59.9153 547.462 62.4151C547.462 64.673 548.147 66.568 549.518 68.1002C550.889 69.5517 552.381 70.6806 553.993 71.487C555.606 72.2934 558.59 73.624 562.944 75.4787C567.299 77.3334 570.887 79.1075 573.71 80.8009C576.613 82.4943 578.992 84.7119 580.846 87.4536C582.782 90.1147 583.749 93.3806 583.749 97.2513C583.749 103.219 581.411 108.057 576.734 111.766C572.057 115.476 565.323 117.331 556.534 117.331C552.421 117.331 548.712 116.968 545.405 116.242C542.18 115.516 538.43 114.548 534.156 113.339L531.495 112.492V96.5256H541.535L544.317 106.081Z" fill="#8C4339"/>
<path d="M5.08618 173.829C9.77827 174.057 14.4702 177.441 19.162 183.981C28.8857 197.534 38.6094 197.534 48.3321 183.981C58.0558 170.429 67.7795 170.429 77.5023 183.981C87.226 197.534 96.9497 197.534 106.672 183.981C116.396 170.429 126.12 170.429 135.843 183.981C141.03 191.211 147.652 192.851 154.178 190.75" stroke="#A19F80" stroke-width="2.71589"/>
<path d="M434.284 194.133C438.976 193.905 443.668 190.521 448.359 183.981C458.083 170.429 467.807 170.429 477.53 183.981C487.253 197.534 496.977 197.534 506.7 183.981C516.423 170.429 526.147 170.429 535.87 183.981C545.594 197.534 555.317 197.534 565.04 183.981C570.227 176.752 576.849 175.112 583.375 177.213" stroke="#A19F80" stroke-width="2.71589"/>
</svg>
